<?xml version="1.0" standalone="no"?>
<!DOCTYPE svg PUBLIC "-//W3C//DTD SVG 20010904//EN"
 "http://www.w3.org/TR/2001/REC-SVG-20010904/DTD/svg10.dtd">
<svg version="1.0" xmlns="http://www.w3.org/2000/svg"
 width="170.000000pt" height="65.000000pt" viewBox="0 0 170.000000 65.000000"
 preserveAspectRatio="xMidYMid meet">

<g transform="translate(0.000000,65.000000) scale(0.100000,-0.100000)"
fill="#000000" stroke="none">
<path d="M0 325 l0 -325 850 0 850 0 0 325 0 325 -850 0 -850 0 0 -325z m153
273 c10 -13 17 -37 17 -64 l0 -44 -41 0 c-50 0 -77 14 -89 46 -27 69 63 119
113 62z m491 -36 c5 -3 78 -4 164 -3 l155 2 -7 -23 c-3 -13 -6 -47 -6 -76 l0
-53 -32 3 c-32 3 -33 4 -31 46 l2 42 -45 0 -44 0 0 -175 0 -175 35 0 c33 0 35
-2 35 -35 l0 -35 -100 0 -100 0 0 35 c0 34 1 35 36 35 36 0 36 1 30 31 -3 17
-6 96 -6 176 l0 144 -42 -3 c-42 -3 -43 -4 -46 -40 -3 -35 -6 -38 -33 -38
l-29 0 0 80 0 80 28 -6 c15 -4 31 -9 36 -12z m590 -199 c28 -112 53 -203 56
-203 3 0 28 91 56 203 l50 202 39 3 c22 2 54 1 72 -3 30 -5 33 -9 33 -40 0
-30 -3 -35 -23 -35 -22 0 -23 -3 -19 -57 2 -32 6 -110 10 -173 7 -109 8 -115
30 -118 17 -3 22 -10 22 -33 l0 -29 -70 0 -70 0 0 30 c0 21 5 30 16 30 14 0
15 15 10 127 -13 257 -13 256 -71 18 l-51 -210 -39 0 -38 0 -51 197 c-28 108
-54 200 -58 204 -5 4 -8 -70 -8 -164 0 -140 3 -172 14 -172 8 0 16 -13 18 -30
l5 -30 -74 0 -73 0 0 35 c0 32 2 35 24 29 l24 -6 6 129 c13 247 14 228 -11
225 -20 -3 -23 1 -23 32 0 33 2 35 38 39 20 2 53 4 72 3 l34 -1 50 -202z
m-939 92 c14 -13 25 -33 25 -45 0 -26 -43 -70 -68 -70 -38 0 -64 33 -70 88
l-5 52 47 0 c36 0 52 -5 71 -25z m165 -5 c48 -48 13 -107 -69 -117 l-54 -6 6
53 c4 29 14 61 23 71 22 25 69 24 94 -1z m-124 -177 c-8 -57 -29 -83 -69 -83
-39 0 -67 26 -67 62 0 45 31 68 91 68 l52 0 -7 -47z m-181 23 c13 -9 21 -31
25 -71 l6 -57 -48 4 c-57 6 -88 30 -88 70 0 54 61 86 105 54z m155 -156 c42
-42 14 -110 -45 -110 -43 0 -65 27 -70 84 l-4 46 50 0 c36 0 54 -5 69 -20z"/>
</g>
</svg>
